<svg width="35" height="35" fill="none" xmlns="http://www.w3.org/2000/svg"><path opacity=".9" fill-rule="evenodd" clip-rule="evenodd" d="M25.33 14.46a19.84 19.84 0 0 0-2.81 13.2 19.909 19.909 0 0 1 3.58-8.26c1-1.42 3.45-3.17 4.78-4.47 1.08-1.07 1.64-2.1 1.43-3a1.941 1.941 0 0 0-2.68-1.22 8.89 8.89 0 0 0-4.3 3.76v-.01Zm-9.81 15.77c-.09-1.5-.91-5.74-4.39-7.47-3.29-1.63-4.43.18-4 1.43.51 1.6 3.57 1.62 5.16 2.56a9.702 9.702 0 0 1 3.23 3.48Z" fill="#271D67"/><path opacity=".9" fill-rule="evenodd" clip-rule="evenodd" d="M16.1 24c-1.21-2.26-3.62-3-6.13-3.47-1.73-.32-3.51-.55-5.25-.8a7.18 7.18 0 0 1-.93-.2C2.45 19.16 2 18.41 2 17.77c0-.335.1-.663.29-.94a2 2 0 0 1 1-.68 5.121 5.121 0 0 1 1.81-.12c1.47.13 3 .29 4.43.39a14.69 14.69 0 0 0 2 .05c1.58-.12 3.06-.59 3-2.42a4.783 4.783 0 0 0-.2-1.14 12.005 12.005 0 0 0-.87-2.06c-.7-1.34-1.34-2.63-2-4-.29-.58-.43-1.51.28-1.85.71-.34 1.42.46 1.79 1a28.491 28.491 0 0 0 3.22 4.61 3.19 3.19 0 0 0 3.79.41c1.49-1 4.06-4.3 4.92-5.21.46-.48 1.29-1.14 1.93-.69.64.45.35 1.34 0 1.87-.65.88-1.75 2.27-2.67 3.44a16.178 16.178 0 0 0-1.72 2.8 23 23 0 0 0-2.38 11.26c.18 1.75.47 3.52.72 5.26.046.315.07.632.07.95 0 1.39-.57 2-1.18 2.21a1.64 1.64 0 0 1-1 0 2 2 0 0 1-.95-.81 5 5 0 0 1-.63-1.71c-.16-.79-.31-1.59-.47-2.38a15.1 15.1 0 0 0-1.08-4V24Zm2.87-21a3.09 3.09 0 1 0 3.13 3.13 3.08 3.08 0 0 0-3.11-3.08L18.97 3Z" fill="#E30613"/></svg>