<svg width="35" height="35" viewBox="0 0 35 35" fill="none" xmlns="http://www.w3.org/2000/svg">
<path opacity="0.9" fill-rule="evenodd" clip-rule="evenodd" d="M25.3299 14.4595C22.8795 18.396 21.8853 23.0664 22.5199 27.6595C23.0669 24.669 24.2915 21.8434 26.0999 19.3995C27.0999 17.9795 29.5499 16.2295 30.8799 14.9295C31.9599 13.8595 32.5199 12.8295 32.3099 11.9295C32.232 11.6609 32.0971 11.4123 31.9142 11.2007C31.7313 10.9891 31.5048 10.8195 31.2502 10.7036C30.9957 10.5878 30.7191 10.5283 30.4394 10.5293C30.1597 10.5303 29.8836 10.5918 29.6299 10.7095C27.8219 11.4557 26.3105 12.7773 25.3299 14.4695V14.4595ZM15.5199 30.2295C15.4299 28.7295 14.6099 24.4895 11.1299 22.7595C7.83989 21.1295 6.69989 22.9395 7.12989 24.1895C7.63989 25.7895 10.6999 25.8095 12.2899 26.7495C13.6382 27.6241 14.7481 28.8199 15.5199 30.2295Z" fill="#271D67"/>
<path opacity="0.9" fill-rule="evenodd" clip-rule="evenodd" d="M16.1 24C14.89 21.74 12.48 21 9.97 20.53C8.24 20.21 6.46 19.98 4.72 19.73C4.4059 19.684 4.0952 19.6171 3.79 19.53C2.45 19.16 2 18.41 2 17.77C1.9995 17.4346 2.1006 17.1069 2.29 16.83C2.5452 16.5056 2.8945 16.2681 3.29 16.15C3.8814 16.0026 4.4943 15.962 5.1 16.03C6.57 16.16 8.1 16.32 9.53 16.42C10.1947 16.4821 10.863 16.4988 11.53 16.47C13.11 16.35 14.59 15.88 14.53 14.05C14.5097 13.6633 14.4426 13.2805 14.33 12.91C14.1047 12.1978 13.8135 11.5081 13.46 10.85C12.76 9.51 12.12 8.22 11.46 6.85C11.17 6.27 11.03 5.34 11.74 5C12.45 4.66 13.16 5.46 13.53 6C14.4487 7.6391 15.5273 9.1833 16.75 10.61C17.2534 11.0773 17.8942 11.3695 18.577 11.4434C19.2599 11.5173 19.9483 11.3688 20.54 11.02C22.03 10.02 24.6 6.72 25.46 5.81C25.92 5.33 26.75 4.67 27.39 5.12C28.03 5.57 27.74 6.46 27.39 6.99C26.74 7.87 25.64 9.26 24.72 10.43C24.0531 11.3026 23.4768 12.2407 23 13.23C21.2653 16.721 20.4463 20.5956 20.62 24.49C20.8 26.24 21.09 28.01 21.34 29.75C21.3864 30.0646 21.4097 30.3821 21.41 30.7C21.41 32.09 20.84 32.7 20.23 32.91C19.9048 33.0141 19.5552 33.0141 19.23 32.91C18.835 32.7483 18.5021 32.4645 18.28 32.1C17.967 31.5734 17.7535 30.9938 17.65 30.39C17.49 29.6 17.34 28.8 17.18 28.01C17.0055 26.6334 16.6421 25.2874 16.1 24.01V24ZM18.97 3C18.3623 3.0079 17.7705 3.1949 17.2685 3.5374C16.7665 3.88 16.3767 4.3629 16.1478 4.9259C15.9189 5.4888 15.8611 6.1068 15.9816 6.7025C16.1021 7.2981 16.3956 7.845 16.8253 8.2747C17.255 8.7044 17.8019 8.9979 18.3976 9.1184C18.9932 9.2389 19.6112 9.1811 20.1741 8.9522C20.7371 8.7233 21.22 8.3335 21.5626 7.8315C21.9051 7.3295 22.0921 6.7377 22.1 6.13C22.1 5.723 22.0194 5.32 21.8627 4.9444C21.706 4.5687 21.4765 4.2279 21.1873 3.9415C20.8981 3.6551 20.555 3.4288 20.1779 3.2758C19.8007 3.1228 19.397 3.0461 18.99 3.05L18.97 3Z" fill="#E30613"/>
</svg>
