<svg width="71" height="71" viewBox="0 0 71 71" fill="none" xmlns="http://www.w3.org/2000/svg">
<path fill-rule="evenodd" clip-rule="evenodd" d="M31.4301 15.021C25.9372 18.7679 28.5452 27.5076 35.1561 27.5076C41.8861 27.5076 44.453 18.46 38.7335 14.8994C36.7323 13.6534 33.3524 13.7096 31.4301 15.021ZM24.6986 31.0743C21.947 34.2297 18.0218 40.9125 18.0003 43.0355C17.9724 45.824 20.22 54.9576 21.2025 56.0488C22.4891 57.4781 24.4324 57.3389 25.4278 56.2737C26.4232 55.2084 25.6767 52.5216 25.6767 52.5216C25.6767 52.5216 24.5311 47.669 24.6986 45.5176C24.866 43.3662 24.9804 42.5635 27.4187 39.5143L28.5657 56.5545C28.6204 57.3681 29.293 58 30.1044 58H41.3868C42.2062 58 42.8825 57.356 42.9268 56.5336L43.8433 39.5143C46.2816 42.5635 46.7001 44.1167 46.8675 46.2681C47.0349 48.4194 45.3233 52.5216 45.3233 52.5216C45.3233 52.5216 44.5768 55.2084 45.5722 56.2737C46.5676 57.339 48.5109 57.4781 49.7974 56.0488C50.7799 54.9576 53.0276 45.824 52.9997 43.0355C52.9781 40.9129 49.0708 34.2317 46.3259 31.0757C45.3096 29.9072 43.7859 29.5087 42.2418 29.5087L28.7841 29.5086C27.2399 29.5086 25.7164 29.907 24.6986 31.0743ZM34.1107 39.3245C33.9276 38.8347 29.9757 29.6238 29.9072 29.5087H41.1058C40.909 29.8205 37.3134 38.8396 37.3106 39.0152C37.3069 39.2516 37.3623 39.3153 37.7235 39.4911C38.3044 39.7737 38.4437 40.023 38.2981 40.5197C38.2302 40.7516 36.8672 44.4177 36.7703 44.629C36.4713 45.2816 36.3019 45.2885 34.6501 44.7157C33.6329 44.3631 33.116 44.2305 32.9555 43.9149C32.7767 43.5634 33.0398 42.9848 33.546 41.6225C34.2313 39.7787 34.2508 39.6994 34.1107 39.3245ZM38.3852 29.4927C38.5656 29.5432 38.6371 29.6358 38.6371 29.8186C38.6371 29.971 36.0852 37.0175 35.8717 37.39C35.7115 37.6694 35.488 37.6348 35.3214 37.3048C35.1253 36.9164 32.6104 29.9918 32.5981 29.8706C32.5867 29.7593 32.6438 29.5515 32.6865 29.5486C32.6901 29.5483 32.7457 29.529 32.8099 29.5057C32.9591 29.4515 38.1945 29.4393 38.3852 29.4927Z" fill="#D80019"/>
</svg>
