<svg width="71" height="71" viewBox="0 0 71 71" fill="none" xmlns="http://www.w3.org/2000/svg">
<path d="M38.8882 17.9072C37.368 17.513 37.5467 17.0706 41.4282 11.6232C44.598 7.17539 44.8881 6.89369 46.1695 7.02271C48.7475 7.28253 48.6845 8.80844 45.8838 13.9683C42.9052 19.4559 42.8866 18.9795 46.1562 20.9568C52.4126 24.7398 54.2708 27.343 58.1406 37.7409C60.7198 44.6732 60.6512 46 57.7128 46C56.285 46 56.1839 45.871 53.3538 40.4365C49.9871 33.973 49.9543 33.9471 48.4604 36.5825C46.894 39.3467 46.673 39.394 44.7284 37.3833C42.7463 35.3337 42.7459 35.3311 43.871 32.7673C45.0877 29.9944 45.0104 29.7778 42.3693 28.5703C39.617 27.3114 39.6775 27.4622 41.0742 25.3368C42.973 22.4475 41.8642 18.68 38.8882 17.9072Z" fill="#D80019"/>
<path d="M26.4186 24.9787C22.0495 24.1122 21.8001 18.0501 26.0643 16.3741C29.1626 15.1565 33 17.0688 33 19.8305C33 21.5091 28.1305 25.3183 26.4186 24.9787Z" fill="#D80019"/>
<path d="M20.3336 46.4722C22.5029 33.3222 22.1108 34.15 29.8999 26.2745C34.6678 21.4536 36.3661 20 37.2304 20C40.1484 20 40.1906 22.7343 37.3239 26.0844C32.7172 31.4676 32.4046 32.317 34.6902 33.2359C42.0127 36.1803 45.1642 40.1581 49.9738 52.5252C52.6944 59.5219 52.6769 62.2702 49.9115 62.2702C48.2501 62.2702 47.6522 61.5323 44.3554 55.4084C42.4797 51.9247 40.7244 49.0714 40.4544 49.0679C40.1849 49.0639 38.2479 51.9365 36.1506 55.4511C32.017 62.3782 30.845 63.5913 29.069 62.7797C26.5982 61.6503 26.7286 60.8732 30.8499 52.1924C35.2178 42.992 35.2091 43.3464 31.1005 41.9955C27.2948 40.7437 27.3726 40.6799 26.0171 46.1705C24.5682 52.0404 24.5532 52.0774 23.3755 52.8519C20.5236 54.7264 19.371 52.3086 20.3336 46.4722Z" fill="#D80019"/>
<path d="M11.9117 35.8417C10.1994 33.4656 11.0094 29.0591 13.4205 27.6305C16.3148 25.9161 20.3108 27.8816 20.9001 31.3098C21.8935 37.0903 15.2316 40.4492 11.9117 35.8417Z" fill="#D80019"/>
</svg>
