<svg width="60" height="60" viewBox="0 0 60 60" fill="none" xmlns="http://www.w3.org/2000/svg">
<path fill-rule="evenodd" clip-rule="evenodd" d="M13.1064 11.1368C13.0596 11.1523 12.8161 11.2294 12.5653 11.3083C11.6751 11.5885 11.467 11.7931 11.0605 12.787C11.0215 12.8825 10.968 13.6048 10.9416 14.3921L10.8936 15.8237L10.5532 15.8498C10.1278 15.8824 10 16.0482 10 16.5672C10 17.0422 10.0928 17.1454 10.5543 17.1837L10.8936 17.2119V23.3286V29.4454L10.5532 29.4715C10.1278 29.5041 10 29.6698 10 30.1888C10 30.6638 10.0928 30.7671 10.5543 30.8053L10.8936 30.8335V37.0804V43.3273L10.5532 43.3534C10.1278 43.386 10 43.5517 10 44.0707C10 44.5458 10.0928 44.649 10.5543 44.6873L10.8936 44.7155L10.946 45.8868C11.026 47.6777 11.2433 48.1561 12.2128 48.675L12.5958 48.8801L26.0003 48.9057C41.0475 48.9345 40.03 48.9758 40.7104 48.3093C41.3552 47.6778 41.3197 48.0392 41.3197 42.0993C41.3197 36.2379 41.3574 36.6178 40.8048 36.9091L40.5537 37.0415V41.593C40.5537 46.7703 40.5563 46.7453 39.9579 47.3732C39.2613 48.1042 40.0887 48.0595 27.7308 48.0345L16.8512 48.0124V30.0093V12.0062H27.745C40.0633 12.0062 39.2883 11.9638 39.9647 12.6743C40.5781 13.3187 40.5537 12.9423 40.5537 21.7615V29.6623H40.7475C40.8541 29.6623 41.0265 29.6014 41.1305 29.5272L41.3197 29.3922V21.0644C41.3197 12.7616 41.3192 12.7357 41.1398 12.3714C40.7897 11.6602 40.4987 11.4469 39.5839 11.2305C39.067 11.1084 13.4687 11.0178 13.1064 11.1368ZM15.915 30.0093V48.0124L14.8511 48.0381C12.6201 48.0919 11.7115 47.2694 11.8037 45.2794L11.8298 44.7155L12.2714 44.6894C12.6496 44.6671 12.7269 44.69 12.8102 44.8487C13.178 45.5494 14.6045 45.4987 15.0835 44.7677C15.8717 43.565 14.0676 42.1951 13.0186 43.1997C12.8637 43.3481 12.7418 43.3753 12.3301 43.3537L11.8298 43.3273V37.0804V30.8335L12.2445 30.8066C12.5671 30.7857 12.6995 30.8185 12.8414 30.9544C13.5058 31.5907 14.6151 31.5138 15.0835 30.799C15.8957 29.5596 14.0501 28.2255 12.9755 29.275C12.7777 29.4683 12.6844 29.495 12.2882 29.472L11.8298 29.4454V23.3286V17.2119L12.2445 17.185C12.5671 17.1641 12.6995 17.1969 12.8414 17.3328C13.5058 17.9691 14.6151 17.8922 15.0835 17.1774C15.8957 15.938 14.0501 14.6038 12.9755 15.6534C12.7777 15.8466 12.6844 15.8733 12.2882 15.8503L11.8298 15.8237L11.8031 15.0862C11.7205 12.804 12.5807 11.9542 14.9363 11.9909L15.915 12.0062V30.0093ZM22.1995 15.4616C21.517 15.9739 20.5885 16.9468 20.0774 17.6854C19.5928 18.3857 19.5471 18.4033 19.3193 17.9781C19.1062 17.5801 18.9402 17.474 18.648 17.5488C18.3233 17.6318 18.2881 17.8196 18.5355 18.1501C18.653 18.3073 18.8655 18.6973 19.0076 19.0168C19.1498 19.3364 19.2972 19.5963 19.3352 19.5943C19.5113 19.5854 19.9636 19.0641 20.2824 18.5027C20.7787 17.6286 21.5916 16.5346 22.2696 15.8282C22.9552 15.1139 22.9185 14.9221 22.1995 15.4616ZM23.1707 16.9899C22.5312 17.1191 22.3262 17.5688 22.7305 17.956L22.9501 18.1663H30.7131C39.4061 18.1663 38.9804 18.1965 38.9204 17.5838C38.8547 16.9136 39.3442 16.9533 30.9516 16.9385C26.8475 16.9313 23.3461 16.9545 23.1707 16.9899ZM22.1995 21.2747C21.517 21.7869 20.5885 22.7598 20.0774 23.4984C19.5928 24.1988 19.5471 24.2164 19.3193 23.7912C19.1062 23.3932 18.9402 23.2871 18.648 23.3619C18.3233 23.4449 18.2881 23.6326 18.5355 23.9631C18.653 24.1203 18.8655 24.5103 19.0076 24.8299C19.1498 25.1494 19.2972 25.4094 19.3352 25.4074C19.4905 25.3995 19.9469 24.9066 20.1753 24.4999C20.7913 23.4035 21.7937 22.063 22.4794 21.4186C23.0359 20.8958 22.8392 20.7947 22.1995 21.2747ZM23.1707 22.9765C22.5312 23.1057 22.3262 23.5554 22.7305 23.9426L22.9501 24.1529H30.7131C39.4061 24.1529 38.9804 24.1831 38.9204 23.5704C38.8547 22.9002 39.3442 22.9398 30.9516 22.9251C26.8475 22.9179 23.3461 22.9411 23.1707 22.9765ZM47.5751 26.0397C47.3879 26.0801 47.1198 26.1363 46.9793 26.1646C46.6656 26.2279 45.5371 27.0267 42.724 29.1767C40.8597 30.6016 39.8355 31.3759 38.4664 32.3953C37.8256 32.8725 36.817 33.6268 36.2253 34.0716C35.6335 34.5164 34.8813 35.0794 34.5536 35.3228C34.2259 35.5661 33.6898 35.9668 33.3621 36.2132C33.0344 36.4596 32.46 36.8911 32.0855 37.172C31.711 37.453 31.3663 37.7139 31.3195 37.7518C31.2727 37.7898 30.9758 38.0167 30.6599 38.2561C30.344 38.4955 30.0854 38.7425 30.0854 38.8052C30.0854 38.9313 30.3523 39.206 30.4752 39.2062C30.685 39.2064 32.1932 40.9712 32.4468 41.5131C32.6714 41.9934 32.6817 41.9898 34.0004 40.9849C34.8065 40.3706 36.1695 39.3605 36.8941 38.8406C37.3388 38.5214 38.6079 37.5848 39.7144 36.7594C40.8209 35.9339 42.0656 35.015 42.4804 34.7174C42.8952 34.4199 43.9623 33.6275 44.8516 32.9568C45.741 32.286 46.7559 31.5266 47.107 31.2692C50.4525 28.816 50.5984 28.4787 49.0534 26.7712C48.4928 26.1516 48.0566 25.9357 47.5751 26.0397ZM22.1995 27.4348C21.517 27.9471 20.5885 28.9199 20.0774 29.6585C19.5928 30.3589 19.5471 30.3765 19.3193 29.9513C19.1062 29.5533 18.9402 29.4472 18.648 29.522C18.3233 29.605 18.2881 29.7927 18.5355 30.1232C18.653 30.2804 18.8655 30.6704 19.0076 30.99C19.1498 31.3095 19.2972 31.5695 19.3352 31.5675C19.5113 31.5585 19.9636 31.0373 20.2824 30.4759C20.7787 29.6018 21.5916 28.5078 22.2696 27.8014C22.9552 27.0871 22.9185 26.8952 22.1995 27.4348ZM23.1707 29.1366C22.5312 29.2658 22.3262 29.7155 22.7305 30.1027L22.9501 30.313H30.7131C39.4061 30.313 38.9804 30.3432 38.9204 29.7305C38.8547 29.0603 39.3442 29.1 30.9516 29.0852C26.8475 29.078 23.3461 29.1012 23.1707 29.1366ZM22.1995 33.1611C21.517 33.6734 20.5885 34.6462 20.0774 35.3848C19.5928 36.0852 19.5471 36.1028 19.3193 35.6776C19.1062 35.2796 18.9402 35.1735 18.648 35.2483C18.3233 35.3313 18.2881 35.519 18.5355 35.8495C18.653 36.0067 18.8655 36.3967 19.0076 36.7163C19.1498 37.0358 19.2972 37.2958 19.3352 37.2938C19.5113 37.2848 19.9636 36.7636 20.2824 36.2022C20.7787 35.3281 21.5916 34.2341 22.2696 33.5277C22.9552 32.8134 22.9185 32.6215 22.1995 33.1611ZM22.9584 34.928C22.5006 35.0206 22.3617 35.6901 22.7377 35.9917C23.0793 36.2655 32.4053 36.2334 32.603 35.9576C32.7829 35.7068 32.754 35.2698 32.5447 35.0766C32.3737 34.9188 23.6709 34.7839 22.9584 34.928ZM22.1995 39.4947C21.517 40.007 20.5885 40.9798 20.0774 41.7185C19.5928 42.4188 19.5471 42.4364 19.3193 42.0112C19.1062 41.6132 18.9402 41.5071 18.648 41.5819C18.3233 41.6649 18.2881 41.8527 18.5355 42.1831C18.653 42.3404 18.8655 42.7304 19.0076 43.0499C19.1498 43.3694 19.2972 43.6294 19.3352 43.6274C19.5113 43.6185 19.9636 43.0972 20.2824 42.5358C20.7787 41.6617 21.5916 40.5677 22.2696 39.8613C22.9552 39.147 22.9185 38.9552 22.1995 39.4947ZM22.6434 41.221C22.4917 41.4416 22.4694 41.9149 22.5989 42.1617C22.707 42.3676 26.4668 42.4265 26.6641 42.2254C26.8286 42.0577 26.7922 41.3392 26.6106 41.1717C26.3335 40.916 22.8229 40.9595 22.6434 41.221ZM27.3262 42.55C26.8656 43.4756 26.5997 44.1032 26.6473 44.1517C26.7176 44.2234 27.1595 44.1616 28.5109 43.8909C28.6982 43.8533 29.0812 43.7773 29.362 43.722C30.437 43.51 30.4965 43.6928 28.6205 41.4402C28.1465 40.871 28.1723 40.849 27.3262 42.55Z" fill="#D80019"/>
</svg>
