<svg width="71" height="71" viewBox="0 0 71 71" fill="none" xmlns="http://www.w3.org/2000/svg">
<path d="M49.966 17.8731C47.412 19.5902 45.843 16.8082 47.5051 13.51C48.3404 11.8526 50.1468 11.4895 51.1836 12.7713C52.0962 13.8999 51.3738 16.9266 49.966 17.8731Z" fill="#D80019"/>
<path d="M50.626 20.6414C51.7702 18.2928 52.9459 16.0746 53.2391 15.7115C54.0339 14.7296 55.8414 14.9141 56.8717 16.0826C58.6994 18.1547 54.4173 29.3044 49.4483 35.4124L46.6647 38.8345L46.8322 42.7441C47.0273 47.2957 46.5947 47.6355 42.4516 46.1869C39.5285 45.165 35.4854 45.169 32.9832 46.1965C30.303 47.2967 29.8389 47.003 29.2535 43.8362C28.7883 41.3187 28.5735 41.0022 26.5596 39.862C21.4915 36.993 12.7529 26.6928 12.7529 23.5872C12.7529 19.9007 15.0856 20.4038 19.9634 25.1415C32.0972 36.9273 43.5105 35.2521 50.626 20.6414Z" fill="#D80019"/>
<path d="M32.7729 29.7964C27.1061 27.2242 27.0386 19.1412 32.6625 16.5205C35.2904 15.2959 36.2419 15.3227 38.8511 16.6955C47.0836 21.0272 41.2331 33.6366 32.7729 29.7964Z" fill="#D80019"/>
<path d="M60.753 24.0494C58.133 24.4407 57.3195 19.885 59.5931 17.552C61.2788 15.8223 64.0003 16.9346 64.0003 19.3536C64.0003 20.9059 61.9499 23.8709 60.753 24.0494Z" fill="#D80019"/>
<path d="M22.778 22.7231C20.7326 25.0429 16.7121 21.3928 18.1904 18.5582C18.9606 17.0823 20.8503 17.3467 22.3178 19.1362C23.8118 20.9579 23.8783 21.4757 22.778 22.7231Z" fill="#D80019"/>
<path d="M11.044 31.2324C8.86551 31.2324 6.92155 26.261 8.6876 25.2052C9.96533 24.4417 10.23 24.5206 11.8053 26.1371C13.7419 28.1242 13.2777 31.2324 11.044 31.2324Z" fill="#D80019"/>
<path d="M11.7686 51.0784C11.7696 50.416 12.667 49.9245 15.3412 49.1231C20.0263 47.7184 21.7613 47.6987 25.8153 49.0043C25.8153 49.0043 27.8045 50.0655 29.1882 50.0909C30.6558 50.1179 32.7864 49.0043 32.7864 49.0043C37.2552 47.6552 38.02 47.6553 42.4908 49.0053C42.4908 49.0053 44.6227 50.1051 46.0914 50.0919C47.5178 50.0791 49.5787 49.0053 49.5787 49.0053C53.8888 47.6618 55.1745 47.6517 59.0727 48.9294C60.7693 49.4856 62.4614 49.9407 62.8325 49.9407C63.204 49.9407 63.5075 50.3958 63.5075 50.952C63.5075 52.2211 61.193 52.3293 58.0872 51.2048C56.9351 50.7876 55.272 50.4463 54.3915 50.4463C53.5109 50.4463 51.8478 50.7876 50.6958 51.2048C49.5437 51.6219 47.4371 51.9632 46.0145 51.9632C44.5919 51.9632 42.4854 51.6219 41.3333 51.2048C40.1812 50.7876 38.5182 50.4463 37.6376 50.4463C36.757 50.4463 35.094 50.7876 33.9419 51.2048C32.7898 51.6219 30.6833 51.9632 29.2607 51.9632C27.8381 51.9632 25.7315 51.6219 24.5794 51.2048C23.4274 50.7876 21.7643 50.4463 20.8837 50.4463C20.0032 50.4463 18.3401 50.7876 17.188 51.2048C14.2393 52.2722 11.7672 52.2145 11.7686 51.0784Z" fill="#D80019"/>
<path d="M16.3255 56.4755C16.9355 56.4542 18.2103 56.121 19.1589 55.7347C21.1748 54.9141 24.8434 55.0314 28.1508 56.0224C30.1317 56.6155 30.8122 56.6175 32.5856 56.0345C35.3584 55.1234 39.5483 55.1097 42.4418 56.0017C44.4695 56.6271 45.0953 56.6271 47.123 56.0017C52.6903 54.2851 62.1 56.1514 59.7968 58.5152C59.1784 59.1498 58.7862 59.1568 56.9812 58.5632C54.2065 57.6516 50.0175 57.6374 47.123 58.5299C45.0978 59.1543 44.4671 59.1548 42.4418 58.5324C41.1547 58.137 38.9925 57.8134 37.6374 57.8134C36.2823 57.8134 34.1206 58.137 32.833 58.5324C30.8383 59.1457 30.1465 59.1498 28.1518 58.5612C24.3146 57.4296 22.1948 57.3608 19.357 58.277C16.3442 59.2494 15.2168 59.0491 15.2168 57.5408C15.2168 56.8244 15.5519 56.5023 16.3255 56.4755Z" fill="#D80019"/>
</svg>
