<svg width="71" height="71" viewBox="0 0 71 71" fill="none" xmlns="http://www.w3.org/2000/svg">
<path d="M14.1859 28.3978C13.4715 26.1667 14.8907 22.9801 17.168 21.7028C22.1951 18.8837 28.1979 25.1319 25.1947 30.0578C22.389 34.6606 15.8777 33.6787 14.1859 28.3978Z" fill="#D80019"/>
<path d="M27.7332 24.6666C27.5391 23.9763 27.49 23.2993 27.6241 23.1624C27.9252 22.8551 27.6551 22.7274 31.981 25.2256C37.6216 28.4834 37.8853 29.849 33.5958 33.5889C30.6576 36.1505 30.7373 36.5998 34.4651 38.4823C38.3532 40.4457 37.8645 40.5366 41.8146 37.1141C46.4442 33.1026 46.2685 33.108 54.5249 36.7207C62.1106 40.0394 63 40.6442 63 42.4805C63 46.2509 60.8044 46.9129 55.1253 44.8539C48.6553 42.5088 49.402 42.4192 45.7497 45.9806C41.9957 49.6404 40.5917 50.2532 36.7163 49.9216C32.6982 49.5778 24.6633 46.4728 22.3688 44.3772C21.3883 43.4816 20.5737 43.6417 16.8834 45.4562C10.9718 48.3628 10.5038 47.9882 9.07002 39.1993C8.71443 37.0199 8.32861 34.1646 8.21212 32.8548L8 30.473L9.50612 29.7397C12.0769 28.4888 12.9933 29.371 14.1463 34.208C15.3152 39.11 15.3728 39.1656 17.6355 37.5767C18.6515 36.863 19.5843 36.2795 19.7081 36.2795C19.8319 36.2795 21.2701 35.368 22.9042 34.2539C24.5382 33.1401 26.2618 32.0222 26.7339 31.7699C27.7319 31.2368 28.3483 26.8553 27.7332 24.6666Z" fill="#D80019"/>
<path d="M40.9688 31.9512C42.167 28.3593 42.5613 27.6965 43.8011 27.1943C44.8648 26.7635 45.3311 26.8704 53.4185 29.398C61.7761 32.0106 62 32.1444 62 34.531C62 37.7586 61.5415 37.7785 54.8577 34.8442C46.8627 31.3344 45.9379 31.3563 41.7751 35.1591C39.664 37.088 39.4887 36.3898 40.9688 31.9512Z" fill="#D80019"/>
</svg>
