<svg width="71" height="71" viewBox="0 0 71 71" fill="none" xmlns="http://www.w3.org/2000/svg">
<path fill-rule="evenodd" clip-rule="evenodd" d="M35 17.2535C20.567 17.2535 8.86667 28.9538 8.86667 43.3868C8.86667 46.7613 9.50575 49.9842 10.6686 52.9427C10.8572 53.4225 10.6212 53.9642 10.1414 54.1528C9.66169 54.3414 9.11992 54.1053 8.93136 53.6256C7.68437 50.4531 7 46.9987 7 43.3868C7 27.9229 19.536 15.3868 35 15.3868C50.464 15.3868 63 27.9229 63 43.3868C63 46.9987 62.3156 50.4531 61.0686 53.6256C60.8801 54.1053 60.3383 54.3414 59.8586 54.1528C59.3788 53.9642 59.1428 53.4225 59.3314 52.9427C60.4942 49.9842 61.1333 46.7613 61.1333 43.3868C61.1333 28.9538 49.433 17.2535 35 17.2535ZM16.3333 43.3868C16.3333 33.0775 24.6907 24.7202 35 24.7202C40.2234 24.7202 44.9442 26.8643 48.3334 30.3229C48.6941 30.6911 49.2851 30.6971 49.6532 30.3363C50.0214 29.9755 50.0274 29.3846 49.6666 29.0164C45.9409 25.2143 40.7453 22.8535 35 22.8535C23.6598 22.8535 14.4667 32.0466 14.4667 43.3868C14.4667 45.9688 14.9437 48.4415 15.8152 50.7202C15.9994 51.2017 16.5389 51.4427 17.0204 51.2586C17.5018 51.0744 17.7429 50.5349 17.5587 50.0534C16.7673 47.9843 16.3333 45.7373 16.3333 43.3868ZM45.46 32.9269C45.8245 33.2913 45.8245 33.8823 45.46 34.2468L38.9266 40.7801C38.9209 40.7859 38.9151 40.7915 38.9092 40.7971L38.8929 40.8123C39.3819 41.5502 39.6667 42.4353 39.6667 43.3868C39.6667 45.9641 37.5773 48.0535 35 48.0535C34.0484 48.0535 33.1634 47.7687 32.4255 47.2797C32.4191 47.2867 32.4126 47.2937 32.4059 47.3006C32.4018 47.3049 32.3976 47.3092 32.3933 47.3134L29.5933 50.1135C29.2288 50.4779 28.6379 50.4779 28.2734 50.1135C27.9089 49.749 27.9089 49.158 28.2734 48.7935L31.0734 45.9935L31.0901 45.9772L31.1071 45.9614C30.6181 45.2234 30.3333 44.3384 30.3333 43.3868C30.3333 40.8095 32.4227 38.7202 35 38.7202C35.9516 38.7202 36.8366 39.005 37.5745 39.494C37.5849 39.4825 37.5956 39.4712 37.6067 39.4602L44.14 32.9269C44.5045 32.5624 45.0955 32.5624 45.46 32.9269ZM35 46.1868C36.5464 46.1868 37.8 44.9332 37.8 43.3868C37.8 42.6231 37.4967 41.9339 36.9997 41.4269C36.4893 40.9063 35.7837 40.5868 35 40.5868C33.4536 40.5868 32.2 41.8404 32.2 43.3868C32.2 44.9332 33.4536 46.1868 35 46.1868ZM45.8322 46.4444C43.6957 43.7634 43.8549 41.2396 46.2352 40.0592C47.611 39.377 49.0546 39.5551 50.5676 40.5942C50.7996 40.7534 50.9106 40.7534 51.1426 40.5934C54.6887 38.1495 58.7337 41.0585 56.9752 44.7882C56.2689 46.286 51.6603 50.8535 50.8551 50.8535C50.473 50.8535 46.722 47.5609 45.8322 46.4444Z" fill="#D80019"/>
</svg>
