<svg width="60" height="60" viewBox="0 0 60 60" fill="none" xmlns="http://www.w3.org/2000/svg">
<path fill-rule="evenodd" clip-rule="evenodd" d="M16.3584 15.9159C16.1454 16.0781 16.0451 16.2902 16.0451 16.5938C16.0451 16.616 16.0567 16.7322 16.1711 16.8736C16.2801 17.0084 16.5195 17.2107 17.0391 17.3465L17.6387 17.5032V19.4325C17.8269 19.4245 18.016 19.4205 18.2061 19.4205C18.3132 19.4205 18.4199 19.4217 18.5263 19.4243V17.4822L19.0996 17.3111C19.558 17.1742 19.719 16.989 19.7849 16.8806C19.8615 16.7548 19.8869 16.6049 19.8869 16.4323C19.8869 16.1971 19.8094 16.0297 19.603 15.8867C19.354 15.7142 18.8594 15.5439 17.966 15.5439C17.0866 15.5439 16.6035 15.7291 16.3584 15.9159ZM16.038 18.7052V19.5992C9.77594 20.6428 5 26.1316 5 32.746C5 40.1054 10.9126 46.0716 18.2061 46.0716C21.9709 46.0716 25.3679 44.4819 27.7734 41.9316C29.6233 42.5893 31.2592 42.3646 32.4535 41.949C33.1023 41.7232 33.6222 41.4414 33.9824 41.2141C34.0543 41.1689 34.1199 41.1256 34.1793 41.0852C34.4114 41.1684 34.733 41.2782 35.1311 41.4004C35.9881 41.6635 37.2037 41.9857 38.6458 42.2248C41.5184 42.7009 45.3534 42.8581 49.0537 41.5003C52.6615 40.1765 54.2251 38.6487 54.7687 37.2384C55.0408 36.5322 55.0331 35.9112 54.9462 35.4555C54.9048 35.2375 54.8455 35.0593 54.7925 34.9285C54.7969 34.8421 54.802 34.7308 54.8077 34.5987C54.822 34.2671 54.8393 33.8037 54.8506 33.2761C54.8734 32.2299 54.8745 30.9001 54.7797 29.8465C54.5542 27.3357 53.3453 24.7293 51.9455 22.4583C50.5362 20.1723 48.8836 18.1472 47.6812 16.7864C46.4597 15.4038 44.59 14.9269 42.8652 15.3793L38.2865 16.5806C37.2857 16.8432 36.6278 17.8076 36.7419 18.8447L36.7791 19.1813C36.9122 20.3914 38.0294 21.2234 39.1992 21.0191L39.1622 21.1402C38.9113 21.9636 39.5202 22.8283 40.4115 22.7982C41.1288 22.774 42.3492 22.708 43.6653 22.5269C43.8971 22.495 44.1337 22.4593 44.3725 22.4193C43.8199 24.0945 43.7367 25.9506 43.7986 27.459C43.8319 28.2692 43.9084 29.0041 43.9882 29.5941C42.7564 29.2764 41.5376 29.3845 40.576 29.5937C39.8995 29.7408 39.323 29.9435 38.9149 30.1093L38.9065 30.1127C38.8408 30.0214 38.7673 29.9224 38.686 29.8174C38.2871 29.3018 37.6905 28.6304 36.9031 28.018C35.3381 26.8006 32.9895 25.8043 30.0116 26.7671C29.3582 25.4562 28.4968 24.2691 27.4709 23.25L27.6286 23.0635C27.9993 23.1386 28.3462 23.1181 28.6631 23.0134C29.123 22.8615 29.4177 22.5651 29.5821 22.3707C29.981 21.899 30.1555 21.2833 29.9789 20.6138C29.8155 19.9942 29.3753 19.4161 28.7489 18.8768C28.1117 18.3283 27.4544 17.9891 26.7943 17.9513C26.0944 17.9112 25.5193 18.2169 25.1183 18.6911C24.7384 19.1403 24.5331 19.9165 24.9244 20.8149L24.6659 21.1207C23.2872 20.339 21.7553 19.7998 20.127 19.5604V18.6359C20.5892 18.4052 20.9251 18.0937 21.1489 17.7259C21.446 17.2379 21.4876 16.7443 21.4876 16.4323C21.4876 15.6983 21.1769 15.0178 20.509 14.5551C19.8836 14.1218 19.0176 13.9287 17.966 13.9287C16.9005 13.9287 16.023 14.1474 15.3937 14.6269C14.7323 15.1309 14.4444 15.8475 14.4444 16.5938C14.4444 17.2919 14.8689 18.1983 16.038 18.7052ZM31.9317 40.422C31.1315 40.7005 30.0875 40.8698 28.889 40.5818C30.476 38.3825 31.4123 35.6746 31.4123 32.746C31.4123 31.1721 31.1419 29.6618 30.6453 28.2601C32.9203 27.579 34.68 28.3282 35.9259 29.2972C36.5793 29.8054 37.0832 30.3707 37.4245 30.8116C37.5943 31.031 37.7216 31.2167 37.805 31.345C37.8466 31.4089 37.877 31.4584 37.8962 31.4902C37.9058 31.506 37.9126 31.5175 37.9164 31.5243L37.9194 31.5294L37.9199 31.5304L38.3044 32.2143L38.9913 31.8441L38.9922 31.8436L38.995 31.8421C38.9991 31.8399 39.0065 31.8362 39.0169 31.8308C39.0379 31.8202 39.0712 31.8034 39.116 31.782C39.2058 31.7391 39.3407 31.6775 39.5128 31.6076C39.8584 31.4671 40.3463 31.2959 40.9133 31.1726C42.0641 30.9223 43.4341 30.8911 44.6201 31.5779C45.575 32.1308 46.5244 33.2138 47.1315 35.3144C47.2553 35.7426 47.6996 35.9884 48.124 35.8635C48.5484 35.7387 48.792 35.2903 48.6683 34.8621C48.0259 32.6399 46.9835 31.2141 45.7339 30.3749C45.7046 30.2184 45.668 30.0096 45.6294 29.7584C45.5377 29.1608 45.4365 28.3288 45.3981 27.3921C45.3241 25.5933 45.4884 23.5416 46.2753 21.9987C46.7347 21.867 47.1768 21.7129 47.5826 21.5323C47.987 21.3522 48.1703 20.8755 47.9918 20.4674C47.8135 20.0593 47.3409 19.8744 46.9366 20.0545C46.5247 20.2378 46.0514 20.3934 45.5454 20.5249C45.5415 20.5259 45.5377 20.5269 45.5338 20.5279C44.8734 20.6989 44.1574 20.829 43.4489 20.9265C42.4575 21.063 41.5177 21.1308 40.8297 21.1644L41.0586 20.4139C41.2776 19.6956 40.6381 19.01 39.9143 19.187L38.9604 19.4204C38.6791 19.4892 38.4019 19.2932 38.37 19.003L38.3329 18.6663C38.3065 18.427 38.4584 18.2044 38.6894 18.1438L43.2682 16.9426C44.4644 16.6288 45.6995 16.9706 46.4863 17.8612C47.6551 19.1841 49.2431 21.1327 50.5861 23.3115C51.9386 25.5053 52.9936 27.8548 53.1856 29.9923C53.2717 30.9512 53.2728 32.2057 53.2502 33.2408C53.2392 33.7541 53.2224 34.2055 53.2084 34.5286C53.2016 34.6899 53.1953 34.819 53.1908 34.9073C53.1886 34.9514 53.1867 34.9855 53.1856 35.0081L53.1841 35.0338L53.1836 35.0414L53.1694 35.2919L53.2907 35.4941C53.2938 35.5004 53.3003 35.5142 53.3088 35.5347C53.3277 35.5806 53.3548 35.6578 53.3743 35.7607C53.4125 35.9613 53.4249 36.2688 53.2768 36.6529C52.9799 37.423 51.9423 38.7217 48.5067 39.9824C45.1639 41.209 41.6354 41.0834 38.9053 40.6309C37.5463 40.4055 36.4006 40.1019 35.5971 39.8551C35.1955 39.7318 34.8804 39.6231 34.6677 39.5462C34.5614 39.5076 34.4809 39.4771 34.4281 39.4566C34.4016 39.4464 34.3821 39.4387 34.3698 39.4338L34.3567 39.4287L34.3547 39.4278L33.9028 39.2426L33.5353 39.5605L33.5344 39.5613L33.5276 39.5669L33.52 39.5731C33.5055 39.5847 33.4812 39.6041 33.4473 39.6298C33.3792 39.681 33.2736 39.7565 33.134 39.8444C32.8539 40.0211 32.4435 40.244 31.9317 40.422ZM26.0229 22.0044C26.1042 22.0647 26.1847 22.126 26.2646 22.1881L27.1423 21.1502L27.688 21.3942C27.9867 21.5277 28.1237 21.4921 28.1651 21.4784C28.2263 21.4581 28.289 21.4116 28.3644 21.3224C28.445 21.227 28.4643 21.152 28.432 21.0292C28.3864 20.8564 28.2149 20.5404 27.7099 20.1056C27.2156 19.68 26.8815 19.5741 26.7035 19.5639C26.5663 19.556 26.457 19.5984 26.3398 19.7351L26.3393 19.7361C26.3357 19.7429 26.3161 19.7798 26.3144 19.8512C26.3123 19.938 26.3355 20.1371 26.5513 20.449L26.9054 20.9607L26.0229 22.0044ZM18.2061 44.4564C24.6157 44.4564 29.8115 39.2135 29.8115 32.746C29.8115 26.2786 24.6157 21.0357 18.2061 21.0357C11.7967 21.0357 6.60074 26.2786 6.60074 32.746C6.60074 39.2135 11.7967 44.4564 18.2061 44.4564ZM39.2237 35.1004C37.2766 34.8222 34.7735 35.0779 32.4298 37.221C32.1023 37.5204 31.5962 37.4954 31.2994 37.1649C31.0026 36.8343 31.0274 36.3236 31.3549 36.0241C34.1337 33.483 37.1532 33.1734 39.448 33.501C40.5884 33.6638 41.553 33.9833 42.233 34.2614C42.5738 34.401 42.8456 34.531 43.0351 34.6281C43.13 34.6767 43.2044 34.7171 43.2569 34.7463C43.283 34.7608 43.3039 34.7726 43.3189 34.7813C43.3242 34.7844 43.3288 34.7872 43.3327 34.7894L43.3371 34.792L43.3429 34.7956L43.345 34.7967L43.3459 34.7973C43.3463 34.7975 43.3466 34.7977 42.9376 35.4919L43.3459 34.7973C43.726 35.0254 43.8515 35.5213 43.6254 35.9046C43.3999 36.2875 42.9097 36.4137 42.5301 36.1869L42.5291 36.1864L42.522 36.1822C42.5144 36.1779 42.5011 36.1703 42.4827 36.1599C42.4459 36.1394 42.3881 36.1081 42.3109 36.0685C42.1566 35.9895 41.9258 35.8787 41.6314 35.7582C41.0406 35.5166 40.2045 35.2404 39.2237 35.1004ZM18.9265 22.9739C18.9265 22.5279 18.5681 22.1663 18.1261 22.1663C17.6841 22.1663 17.3257 22.5279 17.3257 22.9739V30.6462C17.3257 30.6818 17.328 30.7168 17.3324 30.7511C16.5742 31.0896 16.0451 31.8555 16.0451 32.746C16.0451 33.9503 17.0126 34.9266 18.2061 34.9266C19.3996 34.9266 20.3671 33.9503 20.3671 32.746C20.3671 31.7961 19.7653 30.9882 18.9254 30.6892C18.9261 30.675 18.9265 30.6606 18.9265 30.6462V22.9739ZM18.7664 32.746C18.7664 33.0582 18.5156 33.3113 18.2061 33.3113C17.8967 33.3113 17.6459 33.0582 17.6459 32.746C17.6459 32.4338 17.8967 32.1807 18.2061 32.1807C18.5156 32.1807 18.7664 32.4338 18.7664 32.746ZM15.9073 23.2035C16.0469 23.6267 15.82 24.0839 15.4006 24.2248C11.8681 25.4109 9.32201 28.7758 9.32201 32.7396C9.32201 37.6946 13.3001 41.7105 18.2061 41.7105C23.1122 41.7105 27.0902 37.6946 27.0902 32.7396C27.0902 32.2934 27.4487 31.9319 27.8906 31.9319C28.3326 31.9319 28.691 32.2934 28.691 32.7396C28.691 38.5855 23.9973 43.3257 18.2061 43.3257C12.415 43.3257 7.72126 38.5855 7.72126 32.7396C7.72126 28.0602 10.7277 24.0916 14.8952 22.6922C15.3146 22.5514 15.7677 22.7803 15.9073 23.2035Z" fill="#D80019"/>
</svg>
