<svg width="60" height="60" viewBox="0 0 60 60" fill="none" xmlns="http://www.w3.org/2000/svg">
<path fill-rule="evenodd" clip-rule="evenodd" d="M42.0083 16.1207C38.1263 16.9617 36.1698 20.7285 37.9502 23.9338C40.7661 29.0032 48.8954 27.1737 48.9087 21.4676C48.9166 18.1103 45.4006 15.3859 42.0083 16.1207ZM16.2455 17.2485C14.8446 17.4166 14.0006 17.8793 13.5337 18.7351C12.7194 20.2277 13.5646 22.1214 15.273 22.6322C15.439 22.6819 16.6318 22.7212 18.3 22.7318C23.0312 22.7623 25.7782 23.3291 25.7782 24.2751C25.7782 24.7898 25.3524 25.1554 23.0268 26.6376C22.3496 27.0692 21.4251 27.7001 20.9723 28.0396C20.5195 28.3792 19.8346 28.877 19.4505 29.146C17.5434 30.4807 17.3817 31.2253 18.7293 32.4657C20.5742 34.1641 22.5001 33.8365 26.2301 31.1897C29.237 29.0561 30.4633 29.09 35.0128 31.4326C37.9304 32.9348 38.6239 33.132 39.252 32.6379C40.2445 31.8571 39.8175 30.6351 37.168 26.6727C33.9329 21.8346 32.0848 20.1954 28.146 18.6709C25.0921 17.489 19.6558 16.8392 16.2455 17.2485ZM44.4483 18.0822C47.0965 19.0225 47.8254 22.2721 45.7915 24.0706C43.691 25.9279 40.2765 25.0804 39.4205 22.4891C38.5061 19.7211 41.5501 17.053 44.4483 18.0822ZM22.3678 19.1212C26.5011 19.6596 29.4175 20.7877 31.7726 22.7592C33.1368 23.9012 36.1287 28.1414 36.1315 28.9371C36.1336 29.5001 35.6985 29.4948 34.3576 28.9155C30.0985 27.0751 28.6077 27.2402 24.4633 30.0111C21.8868 31.7338 21.3058 31.939 20.7885 31.3091C20.3778 30.809 20.9333 30.2739 23.5696 28.6299C24.1855 28.246 25.147 27.5906 25.7063 27.1736C26.2656 26.7565 27.2672 26.0441 27.932 25.5905C30.0464 24.1476 30.0449 23.6807 27.9226 22.6657C25.2471 21.3861 20.6478 20.6583 17.3549 20.9935C16.0731 21.124 15.4187 20.8927 15.2927 20.2647C15.1661 19.6342 15.8311 19.1242 16.9346 19.0052C17.8125 18.9106 21.3264 18.9856 22.3678 19.1212ZM29.3984 31.9576C27.9685 32.1996 26.8547 32.7834 25.1744 34.1716C23.3494 35.6795 22.2988 36.1757 20.9297 36.1764C19.5563 36.177 18.8206 35.8543 16.503 34.2347C13.1483 31.8903 10 31.1589 10 32.7238C10 33.3079 10.1879 33.4405 11.4587 33.7537C13.0735 34.1516 13.761 34.5108 16.0401 36.1472C17.9543 37.5216 19.0975 37.9383 20.9708 37.9446C23.1386 37.952 24.2961 37.4306 26.8465 35.2977C29.7013 32.9103 32.0079 32.9854 35.0232 35.564C37.3112 37.5207 38.8024 38.0798 41.4258 37.9647C43.6174 37.8685 44.2097 37.5873 46.2429 35.6776C47.6449 34.3606 47.8174 34.2245 48.4206 33.9594C49.7462 33.3768 49.7594 33.3691 49.9016 33.0889C50.2752 32.3529 49.4896 31.7676 48.4351 31.9961C47.2916 32.2439 46.2746 32.9233 45.09 34.2308C43.6942 35.7714 42.777 36.2212 41.0355 36.2192C39.236 36.2172 38.101 35.7332 36.2559 34.1812C33.7413 32.0661 32.0323 31.512 29.3984 31.9576ZM29.4136 37.9136C28.052 38.1415 26.9409 38.7268 25.2029 40.1318C21.9658 42.7486 20.2062 42.8264 16.9133 40.4979C14.7819 38.9906 14.0691 38.6046 12.6468 38.1874C10.9605 37.6926 10 37.8848 10 38.7169C10 39.2848 10.2723 39.472 11.5135 39.7572C12.9494 40.0872 13.6818 40.461 15.6973 41.8929C19.6763 44.7197 22.6951 44.7035 26.1695 41.8365C28.517 39.8995 29.3389 39.5264 31.0376 39.6264C32.4735 39.711 33.2933 40.0984 34.8808 41.4427C37.3151 43.5041 38.8874 44.1005 41.507 43.9562C43.6264 43.8395 44.7508 43.2972 46.3693 41.611C47.4356 40.4999 47.9418 40.1192 48.8085 39.7761C49.9037 39.3425 50.2393 38.8503 49.8342 38.2723C49.1461 37.2903 46.9305 38.2124 45.0225 40.2751C43.579 41.8356 42.8769 42.1542 40.8989 42.1463C39.0272 42.1388 38.1312 41.753 36.2148 40.129C34.6961 38.842 33.8388 38.3383 32.6371 38.0271C32.0545 37.8762 30.0573 37.8059 29.4136 37.9136Z" fill="#D80019"/>
</svg>
