<?xml version="1.0" encoding="UTF-8"?> <svg xmlns="http://www.w3.org/2000/svg" viewBox="0 0 124.15 64.67"><defs><style>.cls-1{fill:#d80019;}</style></defs><title>dfsdfsdРесурс 2@4x5fdfd</title><g id="Слой_2" data-name="Слой 2"><g id="Слой_1-2" data-name="Слой 1"><path class="cls-1" d="M110.73,33.89c-1.22,0-2.44,0-3.66,0A22.5,22.5,0,0,0,96,37.55a32.23,32.23,0,0,1-6.51,3.32,17.31,17.31,0,0,1-14-1.23c-2-1.09-3.92-2.37-6-3.41A20.36,20.36,0,0,0,50,36.38c-1.78.92-3.41,2.12-5.18,3a18.07,18.07,0,0,1-18-.13c-1.64-.91-3.22-1.93-4.85-2.85a19.37,19.37,0,0,0-11.09-2.54c-.19,0-.37,0-.62,0a6,6,0,0,1,2-6.13,6,6,0,0,1,6.69-1c2.51,1.1,4.92,2.4,7.45,3.45C34,33.45,45.15,32.33,51.5,26a32.2,32.2,0,0,0,3.19-4c2.05-2.83,3.86-5.86,6.12-8.52C69,3.82,79.53-.6,92.14.07a31.48,31.48,0,0,1,12.48,3.22c2,1,4,1.88,6,2.84a6.29,6.29,0,1,1-5.39,11.35c-2.22-1-4.39-2.18-6.66-3.09-8.15-3.29-15.86-2.22-23.16,2.52,0,0-.07.11-.14.23l35.46,16.49Z"></path><path class="cls-1" d="M0,49.2c0-2.46,0-4.71,0-7a1.29,1.29,0,0,1,.66-.87c7-3.65,14.17-3.91,21.34-.4,1.59.78,3.1,1.74,4.62,2.67,6.27,3.82,12.51,3.73,18.69-.18a29.25,29.25,0,0,1,8.91-4.25,22.45,22.45,0,0,1,16.38,2c1.67.91,3.28,1.95,4.94,2.89a16.3,16.3,0,0,0,16.89,0A61,61,0,0,1,100,40a21.93,21.93,0,0,1,19.06,1.35c1.56.85,3.07,1.8,4.58,2.74a1.05,1.05,0,0,1,.48.7c0,2.13,0,4.26,0,6.55-.69-.3-1.31-.5-1.88-.82-1.83-1-3.64-2.08-5.45-3.14C110.87,43.89,105,44,99,47.48a46.42,46.42,0,0,1-7.58,4A21.78,21.78,0,0,1,73,49.92C71.37,49,69.8,48,68.16,47.07A16.12,16.12,0,0,0,51.78,47c-1.71.92-3.29,2.07-5,3a22.35,22.35,0,0,1-21.84,0c-1.55-.81-3-1.78-4.53-2.65a16.22,16.22,0,0,0-17.21,0C2.18,47.86,1.19,48.49,0,49.2Z"></path><path class="cls-1" d="M0,61.05c0-2.47,0-4.75,0-7,0-.27.37-.63.65-.78,6.9-3.59,13.92-3.93,21-.57,1.89.9,3.66,2.06,5.47,3.11,6,3.48,11.92,3.37,17.79-.21,2.8-1.7,5.55-3.5,8.76-4.35a22.56,22.56,0,0,1,17.35,2.07c1.56.87,3,1.84,4.61,2.71a16.17,16.17,0,0,0,16.63,0c2-1.08,3.83-2.4,5.87-3.36a22,22,0,0,1,19.78,0c2,1,3.87,2.19,5.79,3.32a.89.89,0,0,1,.4.56c0,2.19,0,4.37,0,6.77-1.48-.76-2.82-1.41-4.11-2.13-1.61-.9-3.13-2-4.78-2.77a15.88,15.88,0,0,0-14.44,0A47.62,47.62,0,0,0,96.47,61a23.07,23.07,0,0,1-18.69,2.81A29,29,0,0,1,69.91,60a18.75,18.75,0,0,0-6.58-2.93A16.54,16.54,0,0,0,51.63,59c-1.47.88-2.9,1.83-4.41,2.65-7.59,4.07-15.2,4.1-22.77-.06-1.59-.87-3.09-1.89-4.69-2.75a16,16,0,0,0-15.87,0C2.62,59.43,1.43,60.21,0,61.05Z"></path><path class="cls-1" d="M55.62,12.67A11.78,11.78,0,1,1,43.81.81,11.83,11.83,0,0,1,55.62,12.67Z"></path></g></g></svg> 