<svg width="71" height="71" viewBox="0 0 71 71" fill="none" xmlns="http://www.w3.org/2000/svg">
<path d="M27.9612 30.2043C20.6496 19.9959 20.9876 19.0888 33.468 15.4197C43.2228 12.5524 44.4467 12.4189 46.0252 14.0487C49.0168 17.1372 47.0288 19.9516 40.4513 21.9394C34.2653 23.809 34.3092 23.6522 38.6984 28.2585C42.9222 32.6908 43.0644 32.9272 44.9019 38.5393C47.1323 45.3527 47.846 45.1325 36.3766 41.1707C32.3434 39.7778 28.0291 38.4988 26.7899 38.3291C23.7992 37.9196 23.9464 37.4062 27.5374 35.7249C31.1384 34.0393 31.0969 34.5818 27.9612 30.2043Z" fill="#D80019"/>
<path d="M55.1457 45.2936C46.6776 45.2936 44.0742 34.4436 51.5446 30.2854C52.5067 29.7496 53.7482 29.5679 55.6088 29.69C65.074 30.3106 64.6294 45.2936 55.1457 45.2936Z" fill="#D80019"/>
<path d="M8.63239 49.8975C5.96898 48.8421 12.2307 43.6523 17.8654 42.2456C23.0833 40.9423 27.8358 41.5182 37.4636 44.6186C40.3837 45.5591 44.1233 46.7427 45.7738 47.2495C49.4205 48.3687 58.095 48.9269 60.9938 48.2286C63.4089 47.647 64.5058 48.1819 63.7782 49.5862C62.4158 52.2142 50.4561 51.5006 40.4645 48.1947C27.4734 43.8969 23.7273 43.3606 17.6115 44.9227C15.5926 45.4385 12.4283 47.3229 10.3637 49.2392C9.80412 49.7583 9.02712 50.0538 8.63239 49.8975Z" fill="#D80019"/>
<path d="M16.2266 51.2866C16.2266 50.3218 17.8406 49.08 19.998 48.3849C23.6213 47.2175 28.3973 47.7223 34.9245 49.9628C36.448 50.4857 39.5228 51.4825 41.7573 52.178C45.7318 53.415 46.8976 54.3346 45.8546 55.4114C45.4913 55.7866 43.0601 55.1883 37.111 53.2596C27.4144 50.1158 23.1185 49.6463 19.4583 51.3295C17.294 52.3248 16.2266 52.3105 16.2266 51.2866Z" fill="#D80019"/>
<path d="M24.4543 55.7808C22.2964 55.7808 21.4345 54.8527 22.536 53.7153C23.151 53.0799 28.0507 53.4722 30.0766 54.3188C33.8637 55.9019 32.7515 57.9169 28.8485 56.5436C27.656 56.1241 25.6786 55.7808 24.4543 55.7808Z" fill="#D80019"/>
</svg>
