<svg width="60" height="60" viewBox="0 0 60 60" fill="none" xmlns="http://www.w3.org/2000/svg">
<path fill-rule="evenodd" clip-rule="evenodd" d="M20.6057 5.26127C20.0226 5.568 19.7494 5.83847 19.467 6.38901L19.2144 6.88161H17.8139C15.9826 6.88161 15.4755 7.17954 15.0747 8.49079C15.01 8.70242 14.7178 8.72081 11.4035 8.7216C7.43302 8.72252 7.36782 8.73486 6.79934 9.59305C6.55899 9.95587 6.55054 10.5244 6.54975 26.3784L6.54883 42.7884L7.14621 43.3581L7.7436 43.9277L15.2966 43.8938L22.8495 43.8599L22.8077 43.3422C22.7202 42.2606 23.3696 42.3493 15.5312 42.3493H8.55216L8.21044 41.9451L7.86872 41.541V26.3231V11.1053L8.21229 10.6989L8.55599 10.2926L11.809 10.3276L15.0621 10.3627L15.1281 11.6106C15.2563 14.0331 15.0896 13.9734 21.7276 13.9734C28.3656 13.9734 28.1989 14.0331 28.3271 11.6106L28.3931 10.3627L31.6347 10.3276L34.8763 10.2926L35.1985 10.6337L35.5205 10.9748L35.5865 17.6966L35.6525 24.4184L36.0836 24.3988C36.9723 24.3584 36.9065 24.9423 36.9055 17.0991C36.9044 7.84463 37.4132 8.72278 32.0517 8.7216C28.7374 8.72081 28.4452 8.70242 28.3805 8.49079C27.984 7.19386 27.4656 6.88161 25.7081 6.88161H24.3741L24.1569 6.45469C23.5173 5.19795 21.8143 4.62574 20.6057 5.26127ZM10.8632 16.5768C10.5189 16.9343 10.5085 16.9909 10.5085 18.5071C10.5085 20.7208 10.594 20.8059 12.8183 20.8059C14.3996 20.8059 14.4231 20.8015 14.7735 20.4375C15.1582 20.0379 15.2849 18.9128 14.9795 18.6088C14.8693 18.4991 15.0307 18.2757 15.6034 17.7452C16.28 17.1185 16.3538 17.003 16.1979 16.816C15.9128 16.4742 15.777 16.5421 14.3941 17.7178C12.9114 18.9786 12.9617 18.9585 12.4674 18.4872C12.1622 18.1961 12.0685 18.1662 11.8992 18.3061C11.6105 18.5446 11.6387 18.6565 12.1696 19.3762C12.7486 20.1612 12.7954 20.1628 13.6619 19.4267C14.4971 18.7172 14.6631 18.6863 14.5475 19.2621C14.3494 20.2478 12.1882 20.697 11.4031 19.9156C10.9569 19.4716 10.954 17.5457 11.3988 17.103C11.8336 16.6703 13.33 16.5961 14.0536 16.9714C14.5682 17.2384 14.8642 17.1735 14.8642 16.7935C14.8642 16.0723 11.523 15.8913 10.8632 16.5768ZM18.215 17.1847C17.947 17.8797 17.6338 17.8503 25.2932 17.8503H32.3528V17.4562V17.0621L25.3206 17.0281C19.2767 16.999 18.2782 17.0209 18.215 17.1847ZM18.215 19.1551C17.947 19.8502 17.6338 19.8207 25.2932 19.8207H32.3528V19.4267V19.0326L25.3206 18.9985C19.2767 18.9694 18.2782 18.9913 18.215 19.1551ZM45.5151 25.0261C45.222 25.1101 44.9283 25.3639 44.6044 25.8125C44.2121 26.3561 44.0766 26.4586 43.849 26.384C36.0045 23.8114 28.0425 27.2341 24.9525 34.5075C20.3108 45.433 29.9614 57.0602 41.7033 54.6892C52.3107 52.5474 57.0929 39.4209 50.2928 31.1119C49.6014 30.2671 49.5982 30.2364 50.1189 29.4758C50.5759 28.8086 50.5895 28.0965 50.1543 27.6181C49.611 27.0205 46.2338 24.8108 45.9849 24.89C45.9644 24.8965 45.753 24.9578 45.5151 25.0261ZM10.8632 25.7721C10.5189 26.1296 10.5085 26.1863 10.5085 27.7024C10.5085 29.9161 10.594 30.0013 12.8183 30.0013C14.3996 30.0013 14.4231 29.9968 14.7735 29.6328C15.1582 29.2332 15.2849 28.1081 14.9795 27.8041C14.8693 27.6944 15.0307 27.471 15.6034 26.9405C16.28 26.3138 16.3538 26.1983 16.1979 26.0113C15.9128 25.6695 15.777 25.7374 14.3941 26.9131C12.9114 28.1739 12.9617 28.1538 12.4674 27.6825C12.1622 27.3914 12.0685 27.3616 11.8992 27.5015C11.6105 27.7399 11.6387 27.8518 12.1696 28.5715C12.7486 29.3565 12.7954 29.3581 13.6619 28.622C14.4971 27.9125 14.6631 27.8816 14.5475 28.4574C14.3494 29.4431 12.1882 29.8924 11.4031 29.1109C10.9569 28.6669 10.954 26.741 11.3988 26.2983C11.8336 25.8656 13.33 25.7914 14.0536 26.1667C14.5682 26.4337 14.8642 26.3689 14.8642 25.9888C14.8642 25.2676 11.523 25.0866 10.8632 25.7721ZM18.2146 26.5126C17.9517 27.1946 17.791 27.1742 23.7428 27.2113L29.2523 27.2456L29.7796 26.8982C30.0696 26.7072 30.3069 26.4997 30.3069 26.437C30.3069 26.2207 18.2983 26.2956 18.2146 26.5126ZM41.5487 27.8196C52.5132 30.5877 55.0452 44.7893 45.6685 50.9265C37.1762 56.4848 25.8193 50.3747 25.8193 40.2475C25.8193 32.0366 33.673 25.8313 41.5487 27.8196ZM18.2146 28.483C17.9561 29.1533 17.903 29.1448 22.5782 29.1821L26.923 29.2168L27.2903 28.8664C27.4924 28.6737 27.6266 28.466 27.5886 28.4048C27.4561 28.1914 18.2976 28.2677 18.2146 28.483ZM38.2865 28.7211C38.2475 28.8219 38.233 29.4615 38.254 30.1425C38.2918 31.3653 38.2964 31.3806 38.6223 31.3806H38.9522V30.0013C38.9522 28.67 38.9418 28.6205 38.6547 28.5799C38.4891 28.5565 38.3258 28.6191 38.2865 28.7211ZM10.8632 34.9674C10.5189 35.325 10.5085 35.3816 10.5085 36.8977C10.5085 39.1115 10.594 39.1966 12.8183 39.1966C14.3996 39.1966 14.4231 39.1921 14.7735 38.8281C15.1582 38.4285 15.2849 37.3034 14.9795 36.9994C14.8693 36.8897 15.0307 36.6663 15.6034 36.1359C16.28 35.5091 16.3538 35.3937 16.1979 35.2066C15.9128 34.8648 15.777 34.9327 14.3941 36.1084C12.9114 37.3692 12.9617 37.3491 12.4674 36.8778C12.1622 36.5867 12.0685 36.5569 11.8992 36.6968C11.6105 36.9352 11.6387 37.0471 12.1696 37.7668C12.7486 38.5519 12.7954 38.5534 13.6619 37.8173C14.4971 37.1078 14.6631 37.0769 14.5475 37.6527C14.3494 38.6384 12.1882 39.0877 11.4031 38.3062C10.9569 37.8622 10.954 35.9363 11.3988 35.4936C11.8336 35.0609 13.33 34.9867 14.0536 35.362C14.5682 35.6291 14.8642 35.5642 14.8642 35.1841C14.8642 34.463 11.523 34.2819 10.8632 34.9674ZM18.2146 35.7079C17.9726 36.3353 18.0896 36.3701 20.5681 36.4082C23.0508 36.4463 23.3788 36.3561 23.1278 35.7052C23.0204 35.4269 18.3219 35.4294 18.2146 35.7079ZM18.2146 37.6783C17.973 38.3045 18.0992 38.3427 20.4096 38.3427H22.5855L22.6269 37.9158L22.6683 37.4889H20.4779C18.6921 37.4889 18.2741 37.5238 18.2146 37.6783ZM37.519 38.5264C35.9841 39.5335 36.5681 42.2134 38.3234 42.217C38.6844 42.2178 39.2975 42.6654 42.2831 45.1084C45.5425 47.7754 46.1124 48.1637 46.2337 47.8008C46.2578 47.7285 45.0014 46.0438 43.4417 44.057C40.9908 40.9349 40.6055 40.3821 40.6032 39.9847C40.5972 39.0022 39.7572 38.2788 38.6223 38.2788C38.1326 38.2788 37.7736 38.3594 37.519 38.5264ZM27.0568 40.0457C26.8578 40.5618 27.0767 40.6529 28.4238 40.6134C29.7008 40.5763 29.713 40.5727 29.713 40.2475C29.713 39.8345 27.2115 39.6444 27.0568 40.0457ZM47.5152 40.0457C47.3161 40.5618 47.5351 40.6529 48.8822 40.6134C50.1592 40.5763 50.1713 40.5727 50.1713 40.2475C50.1713 39.8345 47.6699 39.6444 47.5152 40.0457ZM38.2865 49.2136C38.2475 49.3143 38.233 49.9539 38.254 50.6349C38.2918 51.8577 38.2964 51.873 38.6223 51.873H38.9522V50.4937C38.9522 49.1625 38.9418 49.1129 38.6547 49.0723C38.4891 49.049 38.3258 49.1115 38.2865 49.2136Z" fill="#D80019"/>
</svg>
