<svg width="60" height="60" viewBox="0 0 60 60" fill="none" xmlns="http://www.w3.org/2000/svg">
<path fill-rule="evenodd" clip-rule="evenodd" d="M35.1716 16.9466C35.1716 19.9398 32.7891 22.3664 29.8501 22.3664C26.9112 22.3664 24.5286 19.9398 24.5286 16.9466C24.5286 13.9533 26.9112 11.5267 29.8501 11.5267C32.7891 11.5267 35.1716 13.9533 35.1716 16.9466ZM36.6706 16.9466C36.6706 20.783 33.617 23.8932 29.8501 23.8932C26.0833 23.8932 23.0296 20.783 23.0296 16.9466C23.0296 13.1101 26.0833 10 29.8501 10C33.617 10 36.6706 13.1101 36.6706 16.9466ZM24.1791 26.7176C22.0362 26.7176 20.0405 27.8277 18.8822 29.6639L13.9747 37.4435C13.2126 38.6518 13.3801 40.2376 14.3772 41.2531L18.7225 45.6788C19.334 46.3015 20.334 46.2716 20.9085 45.6133C21.4372 45.0075 21.4106 44.0872 20.8479 43.5141L17.0452 39.6409C16.7287 39.3186 16.6931 38.8083 16.9616 38.4437L20.4716 33.6771C20.9663 33.0055 22.0138 33.3092 22.087 34.1455L23.4014 49.1689C23.4381 49.5887 23.1337 49.9595 22.7214 49.9969C22.309 50.0343 21.945 49.7243 21.9083 49.3043L21.7023 46.9498C20.5308 47.9426 18.7748 47.8911 17.6625 46.7583L13.3172 42.3325C11.8217 40.8095 11.5704 38.4307 12.7136 36.6183L17.621 28.8387C19.055 26.5652 21.526 25.1909 24.1791 25.1909H35.8208C38.4739 25.1909 40.9449 26.5652 42.3788 28.8387L47.2864 36.6183C48.4296 38.4307 48.1783 40.8095 46.6828 42.3325L42.3375 46.7583C41.2252 47.8911 39.4691 47.9426 38.2976 46.9498L38.0917 49.3043C38.0549 49.7243 37.6908 50.0343 37.2786 49.9969C36.8662 49.9595 36.5618 49.5887 36.5985 49.1689L37.913 34.1455C37.9861 33.3092 39.0336 33.0055 39.5283 33.6771L43.0382 38.4437C43.3069 38.8083 43.2712 39.3186 42.9547 39.6409L39.1521 43.5141C38.5893 44.0872 38.5628 45.0075 39.0914 45.6133C39.6659 46.2716 40.6661 46.3015 41.2774 45.6788L45.6228 41.2531C46.6198 40.2376 46.7874 38.6518 46.0252 37.4435L41.1177 29.6639C39.9594 27.8277 37.9638 26.7176 35.8208 26.7176H34.7658L31.1523 35.2837L32.3043 35.7132C32.5377 35.8002 32.6575 36.0632 32.5722 36.3008L30.9949 40.6886C30.9096 40.9261 30.6513 41.0481 30.4181 40.9612L27.5841 39.9046C27.3508 39.8176 27.2311 39.5547 27.3163 39.317L28.7469 35.3373L25.2988 26.7176H24.1791ZM26.9175 26.7176L29.9434 34.2822L33.1344 26.7176H26.9175ZM38.7515 41.7628L41.5271 38.9359L39.2673 35.8672L38.7515 41.7628ZM21.2484 41.7628L20.7326 35.8672L18.4729 38.9359L21.2484 41.7628Z" fill="#D80019"/>
</svg>
