<svg width="60" height="61" viewBox="0 0 60 61" fill="none" xmlns="http://www.w3.org/2000/svg">
<path d="M37.5 30.5L26.5 38.75V22.25L37.5 30.5ZM30 4C26.52 4 23.074 4.68544 19.8589 6.01719C16.6438 7.34894 13.7224 9.30092 11.2617 11.7617C6.29196 16.7314 3.5 23.4718 3.5 30.5C3.5 37.5282 6.29196 44.2686 11.2617 49.2383C13.7224 51.6991 16.6438 53.6511 19.8589 54.9828C23.074 56.3145 26.52 57 30 57C37.0282 57 43.7686 54.208 48.7383 49.2383C53.708 44.2686 56.5 37.5282 56.5 30.5C56.5 27.02 55.8145 23.574 54.4828 20.3589C53.1511 17.1438 51.1991 14.2224 48.7383 11.7617C46.2776 9.30092 43.3562 7.34894 40.1411 6.01719C36.926 4.68544 33.48 4 30 4Z" stroke="white" stroke-width="3"/>
</svg>
