<svg width="60" height="60" viewBox="0 0 60 60" fill="none" xmlns="http://www.w3.org/2000/svg">
<path fill-rule="evenodd" clip-rule="evenodd" d="M29.7168 10.6019C31.3031 10.6019 32.589 9.30645 32.589 7.70846C32.589 6.11047 31.3031 4.81505 29.7168 4.81505C28.1305 4.81505 26.8447 6.11047 26.8447 7.70846C26.8447 9.30645 28.1305 10.6019 29.7168 10.6019ZM29.7168 11.4169C31.7498 11.4169 33.3981 9.7566 33.3981 7.70846C33.3981 5.66033 31.7498 4 29.7168 4C27.6837 4 26.0356 5.66033 26.0356 7.70846C26.0356 9.7566 27.6837 11.4169 29.7168 11.4169ZM26.8178 12.2727C25.6612 12.2727 24.5841 12.8653 23.9589 13.8456L21.3102 17.9988C20.8989 18.6439 20.9892 19.4905 21.5273 20.0326L23.8727 22.3953C24.2028 22.7277 24.7425 22.7118 25.0526 22.3604C25.128 22.2748 25.1825 22.1776 25.2163 22.0751L25.1806 21.4698C25.1417 21.3864 25.088 21.3083 25.0198 21.2396L22.9674 19.172C22.7966 18.9999 22.7773 18.7275 22.9223 18.5328L24.8109 15.996C25.0821 15.6317 25.657 15.8058 25.6838 16.2604L25.9806 21.292C26.0743 21.5703 26.0915 21.8694 26.0315 22.1559L26.1576 24.2943L25.4739 36.2558C25.4405 36.8418 25.9031 37.3354 26.4857 37.3354C26.9834 37.3354 27.4074 36.9714 27.4863 36.4764L29.3588 24.7311C29.4463 24.1824 30.2299 24.1824 30.3174 24.7311L32.19 36.4764C32.2688 36.9714 32.6929 37.3354 33.1905 37.3354C33.7731 37.3354 34.2358 36.8418 34.2023 36.2558L33.5429 24.7178C33.5265 24.4318 33.531 24.145 33.5562 23.8597L34.2304 16.2383C34.2699 15.7917 34.8353 15.6296 35.1023 15.9882L36.9967 18.5328C37.1417 18.7275 37.1224 18.9999 36.9516 19.172L34.8991 21.2396C34.5955 21.5456 34.5811 22.037 34.8664 22.3604C35.1765 22.7118 35.7163 22.7277 36.0463 22.3953L38.3916 20.0326C38.9298 19.4905 39.0201 18.6439 38.6088 17.9988L35.9601 13.8456C35.3349 12.8653 34.2578 12.2727 33.1012 12.2727H32.5318L29.9091 18.4224L27.4221 12.2727H26.8178ZM28.2957 12.2727L29.929 16.3111L31.6512 12.2727H28.2957ZM25.2835 23.2155C24.6635 23.5928 23.8412 23.5162 23.3006 22.9716L20.9553 20.6089C20.1481 19.7958 20.0125 18.5258 20.6295 17.5583L23.2782 13.4051C24.0522 12.1914 25.3858 11.4577 26.8178 11.4577H33.1012C34.5332 11.4577 35.8668 12.1914 36.6408 13.4051L39.2895 17.5583C39.9065 18.5258 39.7709 19.7958 38.9637 20.6089L36.6184 22.9716C36.018 23.5764 35.0703 23.6039 34.438 23.0739L34.3621 23.932C34.3404 24.1777 34.3365 24.4248 34.3506 24.671L35.01 36.2089C35.0595 37.0737 34.508 37.8267 33.7295 38.069H38.8997V47.0345H55V56H38.8997H21.1003H5V43.6113H21.1003V38.069H25.9467C25.1683 37.8267 24.6168 37.0737 24.6663 36.2089L25.3472 24.2951L25.2835 23.2155ZM32.6527 38.069C32.0047 37.8674 31.5035 37.3103 31.3911 36.6056L29.8381 26.8646L28.2852 36.6056C28.1728 37.3103 27.6716 37.8674 27.0236 38.069H32.6527ZM34.6829 20.3048L36.181 18.7956L34.9613 17.1574L34.6829 20.3048ZM25.104 20.1718L24.9286 17.1964L23.7379 18.7956L25.104 20.1718ZM21.9094 38.884H38.0906V55.185H21.9094V38.884ZM20.2913 44.4263H5.80906V55.185H20.2913V44.4263ZM39.7087 47.8495H54.1909V55.185H39.7087V47.8495Z" fill="#D80019"/>
</svg>
